<svg width="212" height="60" viewBox="0 0 212 60" fill="none" xmlns="http://www.w3.org/2000/svg">
<path d="M39.4215 0H5.57851C2.49759 0 0 2.54808 0 5.69129V40.3087C0 43.4519 2.49759 46 5.57851 46H39.4215C42.5024 46 45 43.4519 45 40.3087V5.69129C45 2.54808 42.5024 0 39.4215 0Z" fill="#BB9C5C"/>
<path d="M12 34.7546C12 34.5747 12.2081 34.0355 12.8017 32.7126C13.2423 31.7301 14.2643 29.4312 15.0722 27.6141C15.88 25.7968 16.8714 23.5622 17.2753 22.6503L18.0158 21L24.9986 21.0128L31.9813 21.0321L31.9996 21.2248C32.0118 21.366 31.7242 22.0724 30.9531 23.7933L29.8943 26.1693L25.3413 26.2013L20.7881 26.2334L18.8481 30.5999L16.8965 35L14.4602 34.9857L12 34.9987V34.7546Z" fill="#FAFAFA"/>
<path d="M10.4587 25.1316C10.2593 24.6513 9.94018 23.8552 9.74075 23.3684C9.54702 22.8816 9.30201 22.2697 9.19374 22.0066C9.07408 21.7106 9 21.4408 9 21.2698V21H11H13L12.9772 21.3488C12.9544 21.5791 12.8462 21.9276 12.6296 22.4475C12.3048 23.2302 11.963 24.0791 11.4786 25.2896C11.1994 25.9869 11.188 26 11.0057 26C10.8177 26 10.812 25.9869 10.4587 25.1316Z" fill="#FAFAFA"/>
<path d="M13.0354 16.961C12.9103 16.82 13.0854 16.2855 14.0732 13.7838L15.1486 11.0371L25.5774 11.0148L36 11V11.2375C35.9937 11.3934 35.606 12.4773 34.9121 14.2292L33.8303 16.9758L23.4516 16.9981C17.7433 17.0055 13.0541 16.9907 13.0354 16.961Z" fill="#FAFAFA"/>
<path d="M29.8999 25.6316L36.4763 11L44.992 22.6985V39.2946C45.1755 43.9884 42.1517 45.9042 39.5861 46L29.4425 45.9044L17 34.534L20.8784 25.6316H29.8999Z" fill="#937A47"/>
<path d="M61.3932 41.3333H60.8019V35.6633H61.3932L63.4425 38.4092L65.4918 35.6633H66.075V41.3333H65.4837V36.5705L63.6288 39.0491H63.2643L61.3932 36.5705V41.3333ZM68.1701 41.3333H67.6679V35.6633H68.2592V40.3289L71.7827 35.6633H72.3092V41.3333H71.7179V36.6515L68.1701 41.3333ZM76.6363 41.3333H76.0369V35.6633H80.4838V41.3333H79.8844V36.206H76.6363V41.3333ZM82.6796 41.3333H82.0802V35.6633H84.4616C85.0232 35.6633 85.466 35.8064 85.79 36.0926C86.114 36.3788 86.276 36.7595 86.276 37.2347C86.276 37.7207 86.114 38.1095 85.79 38.4011C85.466 38.6873 85.0232 38.8304 84.4616 38.8304H82.6796V41.3333ZM82.6796 36.206V38.2877H84.4211C84.8207 38.2877 85.1312 38.1986 85.3526 38.0204C85.574 37.8368 85.6847 37.5803 85.6847 37.2509C85.6847 36.9161 85.574 36.6596 85.3526 36.4814C85.1366 36.2978 84.8261 36.206 84.4211 36.206H82.6796ZM87.9692 41.3333H87.467V35.6633H88.0583V40.3289L91.5818 35.6633H92.1083V41.3333H91.517V36.6515L87.9692 41.3333ZM93.7002 35.6633H94.2996V38.1257L96.924 35.6633H97.7178L94.9314 38.2553L98.1471 41.3333H97.3047L94.2996 38.4497V41.3333H93.7002V35.6633ZM99.6548 41.3333H99.0554V35.6633H101.437C101.998 35.6633 102.441 35.8064 102.765 36.0926C103.089 36.3788 103.251 36.7595 103.251 37.2347C103.251 37.7207 103.089 38.1095 102.765 38.4011C102.441 38.6873 101.998 38.8304 101.437 38.8304H99.6548V41.3333ZM99.6548 36.206V38.2877H101.396C101.796 38.2877 102.106 38.1986 102.328 38.0204C102.549 37.8368 102.66 37.5803 102.66 37.2509C102.66 36.9161 102.549 36.6596 102.328 36.4814C102.112 36.2978 101.801 36.206 101.396 36.206H99.6548ZM103.914 41.3333H103.29L105.817 35.6309H106.376L108.911 41.3333H108.28L107.575 39.77H104.602L103.914 41.3333ZM106.093 36.3842L104.805 39.2435H107.381L106.093 36.3842ZM112.217 41.4305C111.391 41.4305 110.697 41.1551 110.136 40.6043C109.585 40.0535 109.309 39.3515 109.309 38.4983C109.309 37.6505 109.585 36.9512 110.136 36.4004C110.692 35.8442 111.386 35.5661 112.217 35.5661C112.833 35.5661 113.362 35.7065 113.805 35.9873V36.6029C113.308 36.2843 112.782 36.125 112.225 36.125C111.577 36.125 111.029 36.3518 110.581 36.8054C110.138 37.2482 109.917 37.8125 109.917 38.4983C109.917 39.1895 110.138 39.7565 110.581 40.1993C111.029 40.6475 111.583 40.8716 112.242 40.8716C112.9 40.8716 113.462 40.6826 113.926 40.3046V40.9283C113.462 41.2631 112.892 41.4305 112.217 41.4305ZM115.639 41.3333H115.137V35.6633H115.728V40.3289L119.252 35.6633H119.778V41.3333H119.187V36.6515L115.639 41.3333ZM121.961 41.3333H121.37V35.6633H121.961L124.011 38.4092L126.06 35.6633H126.643V41.3333H126.052V36.5705L124.197 39.0491H123.832L121.961 36.5705V41.3333ZM128.811 36.4085C129.356 35.8469 130.037 35.5661 130.852 35.5661C131.662 35.5661 132.34 35.8469 132.885 36.4085C133.431 36.9701 133.703 37.6667 133.703 38.4983C133.703 39.3353 133.431 40.0346 132.885 40.5962C132.345 41.1524 131.668 41.4305 130.852 41.4305C130.031 41.4305 129.351 41.1524 128.811 40.5962C128.271 40.04 128.001 39.3407 128.001 38.4983C128.001 37.6613 128.271 36.9647 128.811 36.4085ZM129.257 40.1912C129.683 40.6448 130.215 40.8716 130.852 40.8716C131.489 40.8716 132.021 40.6448 132.448 40.1912C132.88 39.7322 133.096 39.1679 133.096 38.4983C133.096 37.8287 132.88 37.2644 132.448 36.8054C132.021 36.3518 131.489 36.125 130.852 36.125C130.215 36.125 129.683 36.3518 129.257 36.8054C128.825 37.2644 128.609 37.8287 128.609 38.4983C128.609 39.1679 128.825 39.7322 129.257 40.1912ZM139.919 41.3333H137.214V35.6633H139.668C140.171 35.6633 140.567 35.7875 140.859 36.0359C141.151 36.2789 141.296 36.6137 141.296 37.0403C141.296 37.3319 141.229 37.583 141.094 37.7936C140.964 38.0042 140.783 38.1527 140.551 38.2391C140.929 38.2985 141.229 38.4632 141.45 38.7332C141.672 39.0032 141.782 39.3434 141.782 39.7538C141.782 40.2344 141.615 40.6178 141.28 40.904C140.945 41.1902 140.492 41.3333 139.919 41.3333ZM137.813 38.5874V40.7906H139.814C140.235 40.7906 140.562 40.6934 140.794 40.499C141.026 40.3046 141.143 40.0319 141.143 39.6809C141.143 39.3353 141.026 39.068 140.794 38.879C140.562 38.6846 140.235 38.5874 139.814 38.5874H137.813ZM137.813 36.206V38.0609H139.571C139.933 38.0609 140.211 37.9826 140.405 37.826C140.605 37.6694 140.705 37.4426 140.705 37.1456C140.705 36.8432 140.605 36.611 140.405 36.449C140.211 36.287 139.933 36.206 139.571 36.206H137.813ZM143.156 41.3333H142.532L145.06 35.6309H145.618L148.154 41.3333H147.522L146.817 39.77H143.845L143.156 41.3333ZM145.335 36.3842L144.047 39.2435H146.623L145.335 36.3842ZM155.265 35.6633H155.864V41.3333H149.19V35.6633H149.789V40.7906H152.227V35.6633H152.827V40.7906H155.265V35.6633ZM158.096 41.4305C157.804 41.4305 157.567 41.3927 157.383 41.3171V40.7582C157.577 40.8338 157.783 40.8716 157.999 40.8716C158.285 40.8716 158.517 40.7528 158.695 40.5152C158.782 40.4018 158.857 40.2884 158.922 40.175C158.96 40.1102 159.035 39.9644 159.149 39.7376L156.865 35.6633H157.529L159.44 39.122L161.036 35.6633H161.676L159.586 40.1345C159.37 40.5935 159.141 40.9256 158.898 41.1308C158.66 41.3306 158.393 41.4305 158.096 41.4305ZM165.411 36.4085C165.957 35.8469 166.637 35.5661 167.453 35.5661C168.263 35.5661 168.94 35.8469 169.486 36.4085C170.031 36.9701 170.304 37.6667 170.304 38.4983C170.304 39.3353 170.031 40.0346 169.486 40.5962C168.946 41.1524 168.268 41.4305 167.453 41.4305C166.632 41.4305 165.951 41.1524 165.411 40.5962C164.871 40.04 164.601 39.3407 164.601 38.4983C164.601 37.6613 164.871 36.9647 165.411 36.4085ZM165.857 40.1912C166.283 40.6448 166.815 40.8716 167.453 40.8716C168.09 40.8716 168.622 40.6448 169.048 40.1912C169.48 39.7322 169.696 39.1679 169.696 38.4983C169.696 37.8287 169.48 37.2644 169.048 36.8054C168.622 36.3518 168.09 36.125 167.453 36.125C166.815 36.125 166.283 36.3518 165.857 36.8054C165.425 37.2644 165.209 37.8287 165.209 38.4983C165.209 39.1679 165.425 39.7322 165.857 40.1912ZM174.352 41.4305C173.525 41.4305 172.831 41.1551 172.27 40.6043C171.719 40.0535 171.444 39.3515 171.444 38.4983C171.444 37.6505 171.719 36.9512 172.27 36.4004C172.826 35.8442 173.52 35.5661 174.352 35.5661C174.967 35.5661 175.496 35.7065 175.939 35.9873V36.6029C175.442 36.2843 174.916 36.125 174.36 36.125C173.712 36.125 173.164 36.3518 172.715 36.8054C172.273 37.2482 172.051 37.8125 172.051 38.4983C172.051 39.1895 172.273 39.7565 172.715 40.1993C173.164 40.6475 173.717 40.8716 174.376 40.8716C175.035 40.8716 175.596 40.6826 176.061 40.3046V40.9283C175.596 41.2631 175.027 41.4305 174.352 41.4305ZM181.281 41.3333H177.271V35.6633H181.159V36.206H177.87V38.0204H180.568V38.5631H177.87V40.7906H181.281V41.3333ZM181.756 41.3333V40.7825C181.81 40.7933 181.885 40.7987 181.982 40.7987C182.231 40.7987 182.428 40.7123 182.574 40.5395C182.725 40.3667 182.846 40.1156 182.938 39.7862C183.003 39.5648 183.046 39.3218 183.068 39.0572C183.1 38.7548 183.124 38.4686 183.141 38.1986C183.151 37.9988 183.162 37.6694 183.173 37.2104L183.205 35.6633H186.753V41.3333H186.154V36.206H183.789L183.748 37.502C183.716 38.5658 183.635 39.365 183.505 39.8996C183.392 40.3856 183.214 40.7447 182.971 40.9769C182.733 41.2037 182.404 41.3252 181.982 41.3414C181.858 41.3414 181.783 41.3387 181.756 41.3333ZM192.76 41.4305C192.031 41.4305 191.418 41.174 190.921 40.661C190.424 40.1372 190.152 39.4865 190.103 38.7089H188.945V41.3333H188.345V35.6633H188.945V38.1662H190.111C190.181 37.421 190.465 36.8 190.962 36.3032C191.453 35.8118 192.052 35.5661 192.76 35.5661C193.521 35.5661 194.153 35.8469 194.655 36.4085C195.163 36.9647 195.417 37.6613 195.417 38.4983C195.417 39.3353 195.163 40.0319 194.655 40.5881C194.153 41.1497 193.521 41.4305 192.76 41.4305ZM191.294 40.2155C191.688 40.6529 192.177 40.8716 192.76 40.8716C193.343 40.8716 193.829 40.6529 194.218 40.2155C194.612 39.7835 194.809 39.2111 194.809 38.4983C194.809 37.7855 194.612 37.2131 194.218 36.7811C193.829 36.3437 193.343 36.125 192.76 36.125C192.177 36.125 191.688 36.3437 191.294 36.7811C190.899 37.2131 190.702 37.7855 190.702 38.4983C190.702 39.2111 190.899 39.7835 191.294 40.2155Z" fill="white"/>
<path d="M60.1598 25.9051C60.0533 25.9051 60 25.8511 60 25.7431L60.0639 3.48596C60.0639 3.39957 60.1065 3.35637 60.1917 3.35637H70.4181C70.5247 3.35637 70.5779 3.39957 70.5779 3.48596V7.14686C70.5779 7.23325 70.5353 7.27645 70.4501 7.27645H63.8988V12.298H70.4501C70.5353 12.298 70.5779 12.352 70.5779 12.46L70.6099 16.1209C70.6099 16.2073 70.5566 16.2505 70.4501 16.2505H63.8988V25.7431C63.8988 25.8511 63.8456 25.9051 63.739 25.9051H60.1598ZM70.4919 25.7431L74.4546 3.48596C74.4759 3.39957 74.5292 3.35637 74.6144 3.35637H79.2483C79.3335 3.35637 79.3868 3.39957 79.4081 3.48596L83.211 25.7431C83.2323 25.8511 83.1897 25.9051 83.0832 25.9051H79.5359C79.4507 25.9051 79.3974 25.8511 79.3761 25.7431L79.0246 23.3781H74.6783L74.3268 25.7431C74.3055 25.8511 74.2522 25.9051 74.167 25.9051H70.6197C70.5345 25.9051 70.4919 25.8511 70.4919 25.7431ZM75.3175 19.9116H78.3854L77.0752 10.8078L76.8834 9.60906L76.7556 10.8078L75.3175 19.9116ZM90.0251 26.229C88.8747 26.229 87.8201 25.9375 86.8613 25.3543C85.9239 24.7496 85.1676 23.9612 84.5924 22.9893C84.0384 21.9958 83.7615 20.9051 83.7615 19.7172V18.2268C83.7615 18.1188 83.8147 18.0648 83.9212 18.0648H87.5005C87.5857 18.0648 87.6283 18.1188 87.6283 18.2268V19.7172C87.6283 20.4299 87.8627 21.0455 88.3314 21.5638C88.8001 22.0606 89.3647 22.309 90.0251 22.309C90.6856 22.309 91.2502 22.0498 91.7189 21.5314C92.1876 21.0131 92.4219 20.4083 92.4219 19.7172C92.4219 18.9179 91.9106 18.2268 90.888 17.6436C90.5471 17.4492 90.0145 17.1468 89.2901 16.7365C88.5657 16.3261 87.884 15.9373 87.2448 15.5702C86.0731 14.879 85.1996 14.0151 84.6243 12.9784C84.0704 11.9201 83.7934 10.7322 83.7934 9.41467C83.7934 8.20517 84.081 7.12526 84.6563 6.17494C85.2315 5.20302 85.9878 4.43628 86.9253 3.87473C87.884 3.31317 88.9173 3.0324 90.0251 3.0324C91.1543 3.0324 92.1876 3.32397 93.125 3.90713C94.0837 4.46868 94.8401 5.23542 95.394 6.20734C95.9692 7.15766 96.2568 8.22677 96.2568 9.41467V12.0713C96.2568 12.1576 96.2142 12.2008 96.129 12.2008H92.5498C92.4646 12.2008 92.4219 12.1576 92.4219 12.0713L92.39 9.41467C92.39 8.65874 92.1556 8.04319 91.6869 7.56803C91.2182 7.09286 90.6643 6.85528 90.0251 6.85528C89.3647 6.85528 88.8001 7.11446 88.3314 7.63282C87.8627 8.12958 87.6283 8.72353 87.6283 9.41467C87.6283 10.1274 87.7775 10.7214 88.0757 11.1965C88.374 11.6717 88.9173 12.1253 89.7056 12.5572C89.8121 12.622 90.0145 12.7408 90.3127 12.9136C90.6323 13.0648 90.9732 13.2484 91.3354 13.4643C91.6976 13.6587 92.0172 13.8315 92.2941 13.9827C92.5924 14.1339 92.7735 14.2311 92.8374 14.2743C93.9026 14.879 94.7442 15.6242 95.362 16.5097C95.9799 17.3736 96.2888 18.4427 96.2888 19.7172C96.2888 20.9483 96.0012 22.0606 95.4259 23.0541C94.872 24.026 94.1157 24.8035 93.157 25.3867C92.2195 25.9483 91.1756 26.229 90.0251 26.229ZM96.8007 25.7431L100.763 3.48596C100.785 3.39957 100.838 3.35637 100.923 3.35637H105.557C105.642 3.35637 105.695 3.39957 105.717 3.48596L109.52 25.7431C109.541 25.8511 109.498 25.9051 109.392 25.9051H105.845C105.759 25.9051 105.706 25.8511 105.685 25.7431L105.333 23.3781H100.987L100.636 25.7431C100.614 25.8511 100.561 25.9051 100.476 25.9051H96.9285C96.8433 25.9051 96.8007 25.8511 96.8007 25.7431ZM101.626 19.9116H104.694L103.384 10.8078L103.192 9.60906L103.064 10.8078L101.626 19.9116ZM111.685 25.9051C111.579 25.9051 111.525 25.8511 111.525 25.7431L111.589 3.48596C111.589 3.39957 111.632 3.35637 111.717 3.35637L117.693 3.32397C118.865 3.30238 119.93 3.58315 120.889 4.1663C121.869 4.74946 122.647 5.53779 123.222 6.53131C123.797 7.50323 124.085 8.58314 124.085 9.77104V19.0692C124.085 20.3219 123.786 21.4666 123.19 22.5033C122.593 23.5185 121.794 24.3284 120.793 24.9331C119.792 25.5379 118.663 25.8511 117.406 25.8727L111.685 25.9051ZM115.424 21.9202H117.406C118.194 21.9202 118.854 21.6394 119.387 21.0779C119.941 20.5163 120.218 19.8468 120.218 19.0692V9.73865C120.218 9.04751 119.962 8.45355 119.451 7.95679C118.961 7.43844 118.375 7.19006 117.693 7.21165L115.456 7.24405L115.424 21.9202ZM126.972 25.9051C126.886 25.9051 126.844 25.8511 126.844 25.7431L126.876 3.48596C126.876 3.39957 126.929 3.35637 127.035 3.35637H130.583C130.689 3.35637 130.743 3.39957 130.743 3.48596L130.711 12.298H135.504V3.48596C135.504 3.39957 135.547 3.35637 135.632 3.35637H139.179C139.286 3.35637 139.339 3.39957 139.339 3.48596L139.403 25.7431C139.403 25.8511 139.35 25.9051 139.243 25.9051H135.664C135.557 25.9051 135.504 25.8511 135.504 25.7431V16.2181H130.711V25.7431C130.711 25.8511 130.668 25.9051 130.583 25.9051H126.972ZM147.923 26.229C146.773 26.229 145.718 25.9375 144.759 25.3543C143.822 24.7496 143.066 23.9612 142.49 22.9893C141.915 21.9958 141.628 20.9051 141.628 19.7172L141.659 9.44707C141.659 8.25917 141.936 7.17926 142.49 6.20734C143.066 5.23542 143.833 4.45788 144.791 3.87473C145.75 3.29158 146.794 3 147.923 3C149.074 3 150.118 3.29158 151.055 3.87473C151.992 4.45788 152.738 5.23542 153.292 6.20734C153.867 7.17926 154.155 8.25917 154.155 9.44707L154.187 19.7172C154.187 20.9051 153.899 21.9958 153.324 22.9893C152.77 23.9612 152.014 24.7496 151.055 25.3543C150.118 25.9375 149.074 26.229 147.923 26.229ZM147.923 22.309C148.562 22.309 149.116 22.0498 149.585 21.5314C150.075 20.9915 150.32 20.3867 150.32 19.7172L150.288 9.44707C150.288 8.73433 150.064 8.12958 149.617 7.63282C149.169 7.13606 148.605 6.88768 147.923 6.88768C147.263 6.88768 146.698 7.13606 146.229 7.63282C145.761 8.10798 145.526 8.71273 145.526 9.44707V19.7172C145.526 20.4299 145.761 21.0455 146.229 21.5638C146.698 22.0606 147.263 22.309 147.923 22.309ZM162.684 26.229C161.555 26.229 160.511 25.9375 159.552 25.3543C158.593 24.7496 157.826 23.9504 157.251 22.9569C156.697 21.9634 156.42 20.8727 156.42 19.6848L156.484 3.48596C156.484 3.39957 156.527 3.35637 156.612 3.35637H160.191C160.277 3.35637 160.319 3.39957 160.319 3.48596V19.6848C160.319 20.4191 160.543 21.0455 160.99 21.5638C161.459 22.0606 162.024 22.309 162.684 22.309C163.366 22.309 163.93 22.0606 164.378 21.5638C164.846 21.0455 165.081 20.4191 165.081 19.6848V3.48596C165.081 3.39957 165.123 3.35637 165.209 3.35637H168.788C168.873 3.35637 168.916 3.39957 168.916 3.48596L168.98 19.6848C168.98 20.8943 168.692 21.9958 168.117 22.9893C167.563 23.9828 166.807 24.7712 165.848 25.3543C164.91 25.9375 163.856 26.229 162.684 26.229ZM176.936 26.229C175.785 26.229 174.731 25.9375 173.772 25.3543C172.835 24.7496 172.078 23.9612 171.503 22.9893C170.949 21.9958 170.672 20.9051 170.672 19.7172V18.2268C170.672 18.1188 170.725 18.0648 170.832 18.0648H174.411C174.496 18.0648 174.539 18.1188 174.539 18.2268V19.7172C174.539 20.4299 174.773 21.0455 175.242 21.5638C175.711 22.0606 176.275 22.309 176.936 22.309C177.596 22.309 178.161 22.0498 178.629 21.5314C179.098 21.0131 179.333 20.4083 179.333 19.7172C179.333 18.9179 178.821 18.2268 177.799 17.6436C177.458 17.4492 176.925 17.1468 176.201 16.7365C175.476 16.3261 174.795 15.9373 174.155 15.5702C172.984 14.879 172.11 14.0151 171.535 12.9784C170.981 11.9201 170.704 10.7322 170.704 9.41467C170.704 8.20517 170.992 7.12526 171.567 6.17494C172.142 5.20302 172.898 4.43628 173.836 3.87473C174.795 3.31317 175.828 3.0324 176.936 3.0324C178.065 3.0324 179.098 3.32397 180.036 3.90713C180.994 4.46868 181.751 5.23542 182.305 6.20734C182.88 7.15766 183.167 8.22677 183.167 9.41467V12.0713C183.167 12.1576 183.125 12.2008 183.04 12.2008H179.46C179.375 12.2008 179.333 12.1576 179.333 12.0713L179.301 9.41467C179.301 8.65874 179.066 8.04319 178.598 7.56803C178.129 7.09286 177.575 6.85528 176.936 6.85528C176.275 6.85528 175.711 7.11446 175.242 7.63282C174.773 8.12958 174.539 8.72353 174.539 9.41467C174.539 10.1274 174.688 10.7214 174.986 11.1965C175.285 11.6717 175.828 12.1253 176.616 12.5572C176.723 12.622 176.925 12.7408 177.223 12.9136C177.543 13.0648 177.884 13.2484 178.246 13.4643C178.608 13.6587 178.928 13.8315 179.205 13.9827C179.503 14.1339 179.684 14.2311 179.748 14.2743C180.813 14.879 181.655 15.6242 182.273 16.5097C182.89 17.3736 183.199 18.4427 183.199 19.7172C183.199 20.9483 182.912 22.0606 182.337 23.0541C181.783 24.026 181.026 24.8035 180.068 25.3867C179.13 25.9483 178.086 26.229 176.936 26.229ZM185.55 25.9051C185.465 25.9051 185.422 25.8511 185.422 25.7431L185.454 3.48596C185.454 3.39957 185.497 3.35637 185.582 3.35637H195.84C195.925 3.35637 195.968 3.41037 195.968 3.51836V7.14686C195.968 7.23325 195.925 7.27645 195.84 7.27645H189.289V12.3304H195.84C195.925 12.3304 195.968 12.3736 195.968 12.46L196 16.1209C196 16.2073 195.957 16.2505 195.872 16.2505H189.289V21.9202H195.872C195.957 21.9202 196 21.9742 196 22.0822V25.7755C196 25.8619 195.957 25.9051 195.872 25.9051H185.55Z" fill="white"/>
</svg>
