<svg width="818" height="722" viewBox="0 0 818 722" fill="none" xmlns="http://www.w3.org/2000/svg">
<path fill-rule="evenodd" clip-rule="evenodd" d="M143.924 84.665C113.575 160.036 108.196 176.14 112.038 180.389C112.614 181.284 256.677 181.731 432.047 181.507L750.905 180.836L784.139 98.0844C805.458 45.3021 817.367 12.6482 817.561 7.95152V0.794556L497.357 1.24182L176.962 1.91306L143.924 84.665ZM34.1075 425.697C30.5219 417.151 25.6569 405.265 21.0341 393.971C17.8824 386.271 14.8433 378.846 12.3987 372.942C6.54057 358.377 -0.868004 340.068 -4.14182 332.195C-7.76012 323.339 -10 315.267 -10 310.149V302.077H50.4756H110.951L110.262 312.512C109.573 319.403 106.299 329.832 99.7523 345.385C89.9314 368.806 79.5935 394.204 64.9488 430.423C56.5063 451.287 56.1613 451.679 50.6481 451.679C44.9624 451.679 44.7899 451.287 34.1075 425.697ZM81.2445 714.438C81.2445 709.044 87.6241 692.878 105.826 653.217C119.316 623.808 150.578 555.053 175.33 500.616L175.333 500.609L175.443 500.366C200.213 445.884 230.612 378.892 242.996 351.554L265.702 302.077L479.809 302.46L693.914 303.038L694.477 308.816C694.85 313.049 686.031 334.226 662.389 385.819L629.923 457.051L490.317 458.012L350.706 458.973L291.221 589.88L231.383 721.795L156.679 721.366L81.2445 721.755V714.438Z" fill="#FAFAFA"/>
</svg>
